<svg width="24" height="24" viewBox="0 0 24 24" fill="none" xmlns="http://www.w3.org/2000/svg">
<path d="M11 16.175V5C11 4.71667 11.096 4.47934 11.288 4.288C11.48 4.09667 11.7173 4.00067 12 4C12.2827 3.99934 12.5203 4.09534 12.713 4.288C12.9057 4.48067 13.0013 4.718 13 5V16.175L17.9 11.275C18.1 11.075 18.3333 10.979 18.6 10.987C18.8667 10.995 19.1 11.0993 19.3 11.3C19.4833 11.5 19.579 11.7333 19.587 12C19.595 12.2667 19.4993 12.5 19.3 12.7L12.7 19.3C12.6 19.4 12.4917 19.471 12.375 19.513C12.2583 19.555 12.1333 19.5757 12 19.575C11.8667 19.5743 11.7417 19.5537 11.625 19.513C11.5083 19.4723 11.4 19.4013 11.3 19.3L4.69999 12.7C4.51665 12.5167 4.42499 12.2877 4.42499 12.013C4.42499 11.7383 4.51665 11.5007 4.69999 11.3C4.89999 11.1 5.13765 11 5.41299 11C5.68832 11 5.92565 11.1 6.12499 11.3L11 16.175Z" fill="#00064F"/>
</svg>
