<svg width="24" height="24" viewBox="0 0 24 24" fill="none" xmlns="http://www.w3.org/2000/svg">
<path d="M5 21C4.45 21 3.97933 20.8043 3.588 20.413C3.19667 20.0217 3.00067 19.5507 3 19V5C3 4.45 3.196 3.97933 3.588 3.588C3.98 3.19667 4.45067 3.00067 5 3H19C19.55 3 20.021 3.196 20.413 3.588C20.805 3.98 21.0007 4.45067 21 5V19C21 19.55 20.8043 20.021 20.413 20.413C20.0217 20.805 19.5507 21.0007 19 21H5ZM5 19H19V5H5V19ZM6 17H18L14.25 12L11.25 16L9 13L6 17ZM8.5 10C8.91667 10 9.271 9.85433 9.563 9.563C9.855 9.27167 10.0007 8.91733 10 8.5C9.99933 8.08267 9.85367 7.72867 9.563 7.438C9.27233 7.14733 8.918 7.00133 8.5 7C8.082 6.99867 7.728 7.14467 7.438 7.438C7.148 7.73133 7.002 8.08533 7 8.5C6.998 8.91467 7.144 9.269 7.438 9.563C7.732 9.857 8.086 10.0027 8.5 10Z" fill="#00064F"/>
</svg>
