<svg width="24" height="24" viewBox="0 0 24 24" fill="none" xmlns="http://www.w3.org/2000/svg">
<path d="M17 15H15C14.7167 15 14.4793 15.096 14.288 15.288C14.0967 15.48 14.0007 15.7173 14 16C13.9993 16.2827 14.0953 16.5203 14.288 16.713C14.4807 16.9057 14.718 17.0013 15 17H18C18.2833 17 18.521 16.904 18.713 16.712C18.905 16.52 19.0007 16.2827 19 16V13C19 12.7167 18.904 12.4793 18.712 12.288C18.52 12.0967 18.2827 12.0007 18 12C17.7173 11.9993 17.48 12.0953 17.288 12.288C17.096 12.4807 17 12.718 17 13V15ZM7 9H9C9.28333 9 9.521 8.904 9.713 8.712C9.905 8.52 10.0007 8.28267 10 8C9.99933 7.71733 9.90333 7.48 9.712 7.288C9.52067 7.096 9.28333 7 9 7H6C5.71667 7 5.47933 7.096 5.288 7.288C5.09667 7.48 5.00067 7.71733 5 8V11C5 11.2833 5.096 11.521 5.288 11.713C5.48 11.905 5.71733 12.0007 6 12C6.28267 11.9993 6.52033 11.9033 6.713 11.712C6.90567 11.5207 7.00133 11.2833 7 11V9ZM4 20C3.45 20 2.97933 19.8043 2.588 19.413C2.19667 19.0217 2.00067 18.5507 2 18V6C2 5.45 2.196 4.97933 2.588 4.588C2.98 4.19667 3.45067 4.00067 4 4H20C20.55 4 21.021 4.196 21.413 4.588C21.805 4.98 22.0007 5.45067 22 6V18C22 18.55 21.8043 19.021 21.413 19.413C21.0217 19.805 20.5507 20.0007 20 20H4ZM4 18H20V6H4V18Z" fill="#00064F"/>
</svg>
