<svg width="24" height="24" viewBox="0 0 24 24" fill="none" xmlns="http://www.w3.org/2000/svg">
<path d="M13.15 16.15L9.52499 12.525C9.44165 12.4417 9.38332 12.3583 9.34999 12.275C9.31665 12.1917 9.29999 12.1 9.29999 12C9.29999 11.9 9.31665 11.8083 9.34999 11.725C9.38332 11.6417 9.44165 11.5583 9.52499 11.475L13.15 7.85001C13.2 7.80001 13.2543 7.76268 13.313 7.73801C13.3717 7.71335 13.434 7.70068 13.5 7.70001C13.6333 7.70001 13.75 7.74601 13.85 7.83801C13.95 7.93001 14 8.05068 14 8.20001V15.8C14 15.95 13.95 16.071 13.85 16.163C13.75 16.255 13.6333 16.3007 13.5 16.3C13.4667 16.3 13.35 16.25 13.15 16.15Z" fill="#00064F"/>
</svg>
